<?xml version="1.0" encoding="utf-8"?>
<!-- Generator: Adobe Illustrator 21.0.0, SVG Export Plug-In . SVG Version: 6.00 Build 0)  -->
<svg version="1.1" xmlns="http://www.w3.org/2000/svg" xmlns:xlink="http://www.w3.org/1999/xlink" x="0px" y="0px"
	 viewBox="0 0 1000 800" enable-background="new 0 0 1000 800" xml:space="preserve">
<g id="background">
</g>
<g id="shadow">
	<g opacity="0.4">
		<path fill="#F7F7F7" d="M481.6,662.3c-24.8,0-49.7,0.4-74.4,2.1c-9.3,0.6-18.5,2-27.9,2.6c-18.7,1.1-37.1,3.2-55.9,4.2
			c-15.1,0.8-30.3,1.2-45.4,2.2c-14.1,0.9-29.8,0.7-43.8-0.8c-10.4-1.1-20.8-1.8-31-3.6c-11.4-2-23.8-3.5-35.7-3.5
			c-17,0.1-33.5,0.1-49.7,3.7c-5.7,1.3-12.7,3.4-17,6c-9.9,6.1-11.3,21.3-1.4,27.6c16.7,10.6,52.2,14.8,75.6,15
			c25.6,0.2,50.5-0.9,76.1-1.6c23.8-0.6,47.6-1.5,71.4-1.5c48.7,0.1,97.5,0,146.1-2c45.7-1.9,91.5-1.2,137.3-1.2
			c47,0,93.6,0.2,140.2,4.1c20.3,1.7,41,2.3,61.4,3.4c18.3,1,35.9,0,54.1-1c15.3-0.8,30.5-3.2,44.4-7.3c11-3.2,30.6-13.2,34-20.9
			c9.5-21.6-133.3-21-155.2-21c-24.5,0.1-49.2,0.5-73.7,0c-10.3-0.2-20.5-1.5-30.5-2.8c-10-1.3-20.1-1-30.3-1.6
			c-42.4-2.4-84.8-2-127.3-2C509.3,662.4,495.5,662.3,481.6,662.3z"/>
	</g>
</g>
<g id="object">
	<g>
		<g>
			<g>
				<polygon fill="#E8BDB8" points="719.2,363.9 713.3,360.7 711.7,354.9 710.3,354.6 709.9,356.3 707.2,351.9 703.2,350.6 
					698.7,353.8 697.1,359.4 700.8,363.5 707.1,365.6 715,370.3 				"/>
				<polygon fill="#3B3387" points="715.9,357.2 750.9,381.7 786.8,343.2 791.1,386.9 756.1,409.9 709.5,368.8 				"/>
			</g>
			<g>
				<polygon fill="#F7F7F7" points="842.3,677 842.9,682.9 832.2,690.3 825.9,685.1 831,678.5 841.7,671.1 				"/>
				<polygon fill="#D67086" points="842,496.7 843.8,514.6 827.8,576.2 842.7,675.1 831.7,678.8 802.7,582.3 798.1,554.2 
					798.3,494.8 				"/>
			</g>
			<g>
				<polygon fill="#D67086" points="757.5,516.7 780.6,682.4 791.1,682.4 793,576.2 812.1,501.6 				"/>
				<polygon fill="#F7F7F7" points="791.1,681.1 791.1,687 779.7,693 774.1,687 779.7,681.1 				"/>
			</g>
			<path fill="#433A99" d="M783.3,346.6c0.8-1.4,1.9-2.5,3.5-3.4c10.4-5.9,27.7-0.7,39-0.7c3.3,35.2,12.6,68.8,18.6,103.4
				c6.3,36.7,13.5,73.3,21.4,109.7c0.4,2.1-31.5,1-34.5,1.1c-30.7,0.5-71,0.4-100.6-8.9c18.9-50.8,25.8-105.5,40.7-157.6
				c2.6-9.2,5.7-18.2,8.1-27.4C780.9,357.4,780.7,351,783.3,346.6z"/>
			<path fill="#292949" d="M797.3,294.6c-7.8,2.1-13.9,9.3-14.8,17.3c-4.3-4-6.4-10-5.6-15.8c0.8-5.8,4.5-11,9.7-13.7
				c4.8,2.6,8.6,7.1,10.2,12.3L797.3,294.6z"/>
			<path fill="#E8BDB8" d="M781.5,305.1c4-21.2,30.5-17.6,38.1-0.4c4.3,9.8-0.2,23.6-8.9,30.4c-0.2,1.9-0.4,7.1-1.9,8.3
				c-1.6,1.4-6.5,0.1-8.4-0.4c-0.5-0.1-1.1-0.3-1.5-0.7c-0.5-0.5-0.6-1.8-0.6-3.2c-1.4-0.1-2.9-0.4-4.3-0.9c-6.2-2-10.6-7.7-12.5-14
				C779.8,318.1,780.3,311.4,781.5,305.1z"/>
			<path fill="#292949" d="M820.7,389.3c-0.3,0-0.5,0-0.6-0.1c-4.7-0.8-12.2-2.3-14.4-7.2c-2.2-5,1.7-14.2,2.4-19.5
				c1-8,1.3-16,1.7-24c0.3-7.2-2.2-14.4-6-20.5c-3.8-6.2-8.7-11.5-13.6-16.9c-2-2.2-4.1-4.6-4.7-7.6c-0.7-3.3,0.6-6.7,2.8-9.2
				c3.3-3.9,7.2-5.9,12.2-6c17.5-0.4,30.7,10,35.7,27.1c7.1,24.5-1.8,48-0.5,72.4c0.2,4.2,1.6,8.3,3.9,11.7
				C839,388.6,824.5,389.5,820.7,389.3z"/>
		</g>
		<path fill="#3B3387" d="M827.6,414.5c3-2,5-4.9,5.3-9.1c0.2-3.9-0.7-7.7-1.3-11.5c-2.1-12.1-1.8-24.7,0.8-36.8
			c2.7-12,16.6,3.1,18.4,8.5c1.9,6,1.4,12.5,1.9,18.7c0.6,8.3,0.9,16.7,0.9,25c0,5.3,1.3,17.7-4.3,20.8c-1.5,0.8-3.2,1.1-4.9,1.4
			c-2.7,0.4-34.3,4.4-34.8,2.9l-4.4-13.8C811.7,419.2,821.6,418.6,827.6,414.5z"/>
		<g>
			<path fill="#292949" d="M853,468.2c-0.8,0.2-1.6-0.4-1.8-1.2l-7.8-37.6c-2.6-12.6-14.9-20.7-27.5-18.1
				c-12.5,2.6-20.6,14.9-18,27.5l7.8,37.6c0.2,0.8-0.4,1.6-1.2,1.8c-0.8,0.2-1.6-0.4-1.8-1.2l-7.8-37.6
				c-2.9-14.2,6.2-28.2,20.4-31.1c14.2-2.9,28.1,6.2,31.1,20.4l7.8,37.6C854.4,467.2,853.8,468,853,468.2z"/>
		</g>
		<polygon fill="#D4D4D4" points="902.5,572.4 895,566.2 879.2,444.7 884.4,446.8 892.4,446.8 		"/>
		<polygon fill="#E0E0E0" points="884.4,446.8 899.5,542.4 892.4,446.8 		"/>
		<polygon fill="#E0E0E0" points="764.1,468.6 879.3,444.7 897.7,565.9 779.2,588.8 		"/>
		<polygon fill="#F7F7F7" points="927.1,566.6 806.1,595.5 781.3,470.1 892.4,446.8 		"/>
		<polygon fill="#F7F7F7" points="806.1,595.5 779.3,588.8 764.2,468.7 773.8,468.6 781.4,470.1 		"/>
		<polygon fill="#EBEBEB" points="773.8,468.6 792.5,577.9 806.2,595.5 781.4,470 		"/>
		<polygon fill="#E0E0E0" points="779.3,588.9 792.5,577.9 806.2,595.5 		"/>
		<g>
			
				<ellipse transform="matrix(0.9791 -0.2033 0.2033 0.9791 -80.5737 175.2902)" fill="#9EA6AD" cx="812.8" cy="479.8" rx="3" ry="3"/>
			<g>
				
					<ellipse transform="matrix(0.9791 -0.2033 0.2033 0.9791 -80.5705 175.2808)" fill="#CFCFCF" cx="812.8" cy="479.8" rx="1.7" ry="1.7"/>
			</g>
		</g>
		<g>
			
				<ellipse transform="matrix(0.9791 -0.2033 0.2033 0.9791 -77.5094 184.9217)" fill="#9EA6AD" cx="861.2" cy="469.7" rx="3" ry="3"/>
			<g>
				
					<ellipse transform="matrix(0.9791 -0.2033 0.2033 0.9791 -77.5109 184.9269)" fill="#CFCFCF" cx="861.2" cy="469.7" rx="1.7" ry="1.7"/>
			</g>
		</g>
		<g>
			<path fill="#292949" d="M861.5,470.9c-0.8,0.2-1.6-0.4-1.8-1.2l-7.8-37.6c-2.6-12.6-14.9-20.7-27.5-18.1
				c-12.5,2.6-20.6,14.9-18,27.5l7.8,37.6c0.2,0.8-0.4,1.6-1.2,1.8c-0.8,0.2-1.6-0.4-1.8-1.2l-7.8-37.6
				c-2.9-14.2,6.2-28.2,20.4-31.1c14.2-2.9,28.1,6.2,31.1,20.4l7.8,37.6C862.8,469.9,862.3,470.7,861.5,470.9z"/>
		</g>
		<polygon fill="#E8BDB8" points="809,422.1 801.9,424.4 796.1,421.4 794.9,422.3 795.9,423.9 790.4,422.7 786.3,424.9 785.5,430.9 
			788.7,436.4 794.8,436.5 801.2,433.1 810.9,430.4 		"/>
		<path fill="#3B3387" d="M831.7,418.4c-1.4-0.8-2.8-1.7-4-2.8c-0.4-0.2-0.8-0.3-1.2-0.5c-6.1,3.5-15.2,4.1-21.4,5.4l4.4,13.8
			c0.4,1.3,22.3-1.2,31.2-2.4C837.8,427.4,835.6,422,831.7,418.4z"/>
	</g>
	<g>
		<g>
			<polygon fill="#5D66D3" points="233.8,344.7 212,353.3 176.3,382.8 160,329.9 140.2,333.4 152.9,398.1 173.8,417 233.9,383.9 			
				"/>
		</g>
		<g>
			<path fill="#D67086" d="M282,287l-178.1,40.1c-3.7,0.8-7.4-1.5-8.2-5.2L70.6,210.4c-0.8-3.7,1.5-7.4,5.2-8.3L253.9,162
				c3.7-0.8,7.4,1.5,8.2,5.2l25.1,111.5C288,282.4,285.7,286.2,282,287z"/>
		</g>
		<g>
			<path fill="#DDDAE8" d="M126.9,262.3l-32.2,7.3c-0.4,0.1-0.7-0.1-0.8-0.5l-5.4-23.8c-0.1-0.4,0.1-0.7,0.5-0.8l32.2-7.3
				c0.4-0.1,0.7,0.1,0.8,0.5l5.4,23.8C127.5,261.8,127.3,262.2,126.9,262.3z"/>
		</g>
		<g opacity="0.3">
			<path fill="#A0A1A3" d="M126.6,257.9l-2.4-10.5c-6.4,9.7-21.7,17.1-30.5,20.8c0.3,1.7,0.6,1.5,2.3,1.1l30-6.7
				C128,262,127.6,262.2,126.6,257.9z"/>
		</g>
		<g>
			<g>
				
					<rect x="96.9" y="273.6" transform="matrix(0.9756 -0.2198 0.2198 0.9756 -58.6743 32.4942)" fill="#F7F7F7" width="39.7" height="12.7"/>
			</g>
			<g>
				
					<rect x="140.1" y="263.9" transform="matrix(0.9756 -0.2198 0.2198 0.9756 -55.4801 41.7484)" fill="#F7F7F7" width="39.7" height="12.7"/>
			</g>
			<g>
				
					<rect x="183.3" y="254.2" transform="matrix(0.9756 -0.2198 0.2198 0.9756 -52.2859 51.0026)" fill="#F7F7F7" width="39.7" height="12.7"/>
			</g>
			<g>
				
					<rect x="226.4" y="244.4" transform="matrix(0.9756 -0.2198 0.2198 0.9756 -49.0917 60.2568)" fill="#F7F7F7" width="39.7" height="12.7"/>
			</g>
		</g>
		<g>
			<path fill="#F7F7F7" d="M96.8,228c-0.9,1.3-2,2.1-3.4,2.4c-2.9,0.7-5.8-1.2-6.5-4.1c-0.7-2.9,1.2-5.9,4.1-6.5
				c1.4-0.3,2.8-0.1,4.2,0.7l0.3,0.2l1.1-1.6l-0.3-0.2c-1.6-1.1-3.7-1.5-5.7-1c-4,0.9-6.5,4.9-5.6,8.9c0.9,4,4.9,6.5,8.9,5.6
				c2-0.4,3.7-1.7,4.7-3.4l0.2-0.3l-1.7-0.9L96.8,228z"/>
			<path fill="#F7F7F7" d="M106.7,218.7c-0.5-2.3-2.7-3.7-5-3.2l-4.4,1l3.2,14.2l1.9-0.4l-1.4-6l2.1-0.5l4.3,5.3l2.2-0.5l-4.6-5.6
				C106.4,222,107.1,220.3,106.7,218.7z M104.8,219.1c0.3,1.2-0.5,2.4-1.7,2.6l-2.4,0.6l-1-4.3l2.4-0.6
				C103.3,217.1,104.5,217.9,104.8,219.1z"/>
			<polygon fill="#F7F7F7" points="110.4,228.4 117.9,226.7 117.5,224.8 111.9,226.1 110.7,220.8 115.6,219.7 115.1,217.8 
				110.3,218.8 109.6,215.7 115.1,214.5 114.7,212.6 107.2,214.2 			"/>
			<path fill="#F7F7F7" d="M119.7,211.4l-3.3,0.8l3.2,14.2l3.3-0.8c4.4-1,6.6-4.4,5.7-8.8C127.6,212.6,124.1,210.4,119.7,211.4z
				 M122.5,223.7L121,224l-2.3-10.3l1.4-0.3c3.4-0.8,5.8,0.7,6.5,3.9C127.4,220.5,125.8,222.9,122.5,223.7z"/>
			
				<rect x="130" y="209.1" transform="matrix(0.9755 -0.2198 0.2198 0.9755 -44.3467 34.0826)" fill="#F7F7F7" width="2" height="14.5"/>
			<polygon fill="#F7F7F7" points="131.6,210.8 135.1,210 137.8,222.2 139.8,221.8 137,209.6 140.5,208.8 140.1,206.8 131.1,208.9 
							"/>
			<path fill="#F7F7F7" d="M159.1,213.7L159,214c-0.9,1.3-2,2.1-3.4,2.4c-2.9,0.7-5.8-1.2-6.5-4.1c-0.7-2.9,1.2-5.9,4.1-6.5
				c1.4-0.3,2.8-0.1,4.2,0.7l0.3,0.2l1.1-1.6l-0.3-0.2c-1.6-1.1-3.7-1.5-5.7-1c-4,0.9-6.5,4.9-5.6,8.9c0.9,4,4.9,6.5,8.9,5.6
				c2-0.4,3.7-1.7,4.7-3.4l0.2-0.3L159.1,213.7z"/>
			<path fill="#F7F7F7" d="M164.8,201.3l-3.6,15.7l2.1-0.5l1.1-4.7l6-1.4l3,3.8l2.1-0.5l-9.9-12.7L164.8,201.3z M169,208.7l-4.2,0.9
				l1.1-4.8L169,208.7z"/>
			<path fill="#F7F7F7" d="M182.4,201.6c-0.5-2.3-2.7-3.7-5-3.2l-4.4,1l3.2,14.2l1.9-0.4l-1.4-6l2.1-0.5l4.3,5.3l2.2-0.5l-4.6-5.6
				C182.1,204.9,182.8,203.2,182.4,201.6z M180.5,202c0.3,1.2-0.5,2.4-1.7,2.6l-2.4,0.6l-1-4.3l2.4-0.6
				C179,200.1,180.2,200.9,180.5,202z"/>
			<path fill="#F7F7F7" d="M186.2,196.4l-3.3,0.8l3.2,14.2l3.3-0.8c4.4-1,6.6-4.4,5.7-8.8C194.1,197.6,190.6,195.4,186.2,196.4z
				 M193.2,202.3c0.7,3.3-0.8,5.6-4.2,6.4l-1.4,0.3l-2.3-10.3l1.4-0.3C190.1,197.6,192.4,199,193.2,202.3z"/>
		</g>
		<g>
			
				<rect x="186.5" y="270.6" transform="matrix(0.9756 -0.2198 0.2198 0.9756 -54.307 56.8786)" fill="#F7F7F7" width="84" height="3.8"/>
		</g>
		<g>
			<g>
				<polygon fill="#E8BDB8" points="352.2,378.3 360.6,370 373.8,370.3 375.4,377 355.3,385.7 				"/>
			</g>
			<path fill="#292949" d="M262.8,313.6c-1.6-18.1-8.6-21.4-8.6-21.4l0,0c-1.8-1.5-4-2.6-6.3-3.2c-3.6,3.2-5.8,7.8-6,12.6l-0.5,0
				c2.2,0.1,4.3,0.6,6.3,1.4c1.5,10.8,3.8,27.9,3.9,32.9c0.1,7.5,1.9,7.6,6.9,9.3c5,1.6,10.3-2.6,10.3-2.6S264.4,331.7,262.8,313.6z
				"/>
			<g>
				<g>
					<g>
						<g>
							<polygon fill="#292949" points="213.2,672.4 212.7,678.1 223,685.2 229,680.2 224.2,673.8 213.8,666.7 							"/>
						</g>
					</g>
					<g>
						<g>
							<polygon fill="#353A85" points="213.5,498.1 211.8,515.4 227.3,574.9 212.9,670.5 223.5,674.2 251.4,580.8 255.8,553.7 
								255.7,496.2 							"/>
						</g>
					</g>
				</g>
				<g>
					<g>
						<g>
							<polygon fill="#353A85" points="295,517.4 272.7,677.6 262.6,677.6 260.8,574.9 242.3,502.8 							"/>
						</g>
					</g>
					<g>
						<g>
							<polygon fill="#292949" points="262.7,676.3 262.7,682.1 273.6,687.8 279.1,682.1 273.6,676.3 							"/>
						</g>
					</g>
				</g>
				<g>
					<g>
						<g>
							<path fill="#5D66D3" d="M214.1,476.9c8.7-58.3,5.6-100.7,6-112.4c0.4-11.7,8.4-17.7,8.4-17.7c3.5-0.8,6.6-3.1,10.1-4
								c23.9-6.2,37,12.6,45.9,32.7c11,24.9,20.3,50.6,27.8,76.8c6.6,23,13.2,46.2,15.9,70.1c1.1,9.9,2.1,19.2-8.4,23.6
								c-16.8,6.9-35.6,6.8-53.4,9c-20.4,2.6-40.8,4.4-61.3,5.3C194.5,560.7,205.4,535.1,214.1,476.9z"/>
						</g>
					</g>
				</g>
			</g>
			<g>
				<polygon fill="#E8BDB8" points="144,332.7 135.1,323.7 138.1,308 146.8,308 149.3,321.7 153.7,324.4 153.7,331 				"/>
			</g>
			<g>
				<polygon fill="#5D66D3" points="250.2,341.6 273.1,345.7 314.5,385.7 351.6,372.7 363.5,387.9 313.9,417 261.4,383.4 				"/>
			</g>
			<g>
				<polygon fill="#DDDAE8" points="255.8,342.8 260.1,404.8 228.3,345.9 237.6,342.5 244.2,340.6 				"/>
			</g>
			<g>
				<g>
					<path fill="#E8BDB8" d="M257,307.2c-7.9-17.2-29.6-8.5-32.5,7.7c-1.6,9.2,3.3,25.3,14.3,25.4c0.6,1.6,1.5,4.5,3,5.3
						c1.6,0.8,5.5-1.3,7-2.1c0.4-0.2,0.9-0.5,1.1-0.9c0.3-0.5,0.1-1.6-0.2-2.9c1.2-0.4,2.3-0.9,3.5-1.6c4.8-3,7.4-8.8,7.6-14.5
						C261.1,318,259.3,312.4,257,307.2z"/>
				</g>
			</g>
			<g>
				<g>
					<path fill="#292949" d="M247.4,289.1c0,0,4.6,9.2-7.2,15.1c-11.8,5.8-17.5,17.6-12.8,27.4c4.7,9.8,15.9,15.1,11.6,19
						c-4.2,3.9-22.8,5.7-22.8,5.7s-19.9-33.7-9.2-53.1C217.8,283.8,238.9,278,247.4,289.1z"/>
				</g>
			</g>
		</g>
		<g>
			<path fill="#3B455A" d="M178.4,414.4l3.5-1.9l2.5-10.6c1.9-7.9-0.2-15.8-4.8-21.8l-2.3,1.9c4.1,5.2,5.9,12.2,4.2,19.2
				L178.4,414.4z"/>
		</g>
		<g>
			<g>
				<g>
					<path fill="#292949" d="M169.7,436.8c-0.8-0.3-1.2-1.1-0.9-1.9l12.1-35.2c4-11.8-2.2-24.6-14-28.7c-11.7-4-24.6,2.2-28.6,14
						l-12.1,35.2c-0.3,0.8-1.1,1.2-1.9,0.9c-0.8-0.3-1.2-1.1-0.9-1.9l12.1-35.2c4.6-13.3,19.1-20.4,32.4-15.8
						c13.3,4.6,20.4,19.1,15.8,32.4l-12.1,35.2C171.3,436.6,170.5,437.1,169.7,436.8z"/>
				</g>
				<polygon fill="#D4D4D4" points="159.3,548.2 156.2,539.4 203.2,430.3 206.6,434.5 213.1,438.5 				"/>
				<polygon fill="#E0E0E0" points="206.6,434.5 171.7,521.7 213.1,438.5 				"/>
				<polygon fill="#E0E0E0" points="95.4,393.2 203.3,430.3 158.6,540.5 48.4,500.9 				"/>
				<polygon fill="#F7F7F7" points="182.8,555.7 67.5,519.7 109,402.9 213.2,438.6 				"/>
				<polygon fill="#EBEBEB" points="103.4,397.9 64.9,498.4 67.6,519.8 109.1,402.7 				"/>
				<g>
					
						<ellipse transform="matrix(0.3252 -0.9456 0.9456 0.3252 -315.3435 411.1721)" fill="#BABCBE" cx="130.4" cy="426.5" rx="3" ry="3"/>
					<g>
						
							<ellipse transform="matrix(0.3252 -0.9457 0.9457 0.3252 -315.3437 411.1769)" fill="#D1D1D1" cx="130.4" cy="426.5" rx="1.7" ry="1.7"/>
					</g>
				</g>
				<g>
					
						<ellipse transform="matrix(0.3252 -0.9456 0.9456 0.3252 -299.4657 464.649)" fill="#BABCBE" cx="175.8" cy="442.2" rx="3" ry="3"/>
					<g>
						
							<ellipse transform="matrix(0.3252 -0.9456 0.9456 0.3252 -299.4652 464.66)" fill="#D1D1D1" cx="175.8" cy="442.2" rx="1.7" ry="1.7"/>
					</g>
				</g>
				<g>
					<path fill="#292949" d="M175.4,443.3c-0.8-0.3-1.2-1.1-0.9-1.9l12.1-35.2c4-11.8-2.2-24.6-14-28.7c-11.7-4-24.6,2.2-28.6,14
						l-12.1,35.2c-0.3,0.8-1.1,1.2-1.9,0.9c-0.8-0.3-1.2-1.1-0.9-1.9l12.1-35.2c4.6-13.3,19.1-20.4,32.4-15.8
						c13.3,4.6,20.4,19.1,15.8,32.4l-12.1,35.2C177,443.2,176.2,443.6,175.4,443.3z"/>
				</g>
			</g>
		</g>
		<g>
			<path fill="#5D66D3" d="M167.5,394.2c2.8-4.3,5.2-8.9,8.3-12.9L160,329.9l-19.9,3.6l12.7,64.7l7.8,7
				C162.8,401.4,165.2,397.8,167.5,394.2z"/>
		</g>
		<polygon fill="#F7F7F7" points="48.4,500.9 64.9,498.4 103.4,397.9 95.4,393.2 		"/>
		<polygon fill="#E0E0E0" points="48.4,500.9 64.9,498.4 67.6,519.8 		"/>
	</g>
	<g>
		<g>
			<g>
				<g>
					<polygon fill="#292949" points="666.1,481.4 670.2,509.4 662,667.8 648.3,664.9 625.5,484.9 					"/>
				</g>
				<g>
					<polygon fill="#292949" points="598.7,476.1 596,581.1 622.7,671.7 638.2,665.9 625.1,585.1 637.1,475.2 					"/>
				</g>
				<g>
					<path fill="#353A85" d="M638.3,657.5l-18.6,8.5l6.2,13l-9.8,6.1c0,0-0.9,5.4,2.4,7.7c3.3,2.3,24.5-15.5,24.5-15.5L638.3,657.5z
						"/>
				</g>
				<g>
					<path fill="#353A85" d="M666.1,660.5l-20.2,3.4l2.7,14.2l-11,3.4c0,0-2.3,5,0.3,8.1c2.6,3.1,27.7-8.7,27.7-8.7L666.1,660.5z"/>
				</g>
			</g>
			<g>
				<path fill="#292949" d="M626.9,304.8c1.4,4.7,3.5,9.2,6.1,13.3c0.1-8.6,1.3-17.1,3.7-25.4c0.2-0.6,0.4-1.3,0-1.9
					c-0.3-0.5-1-0.7-1.5-0.9C624.6,287.4,624.4,296.7,626.9,304.8z"/>
			</g>
			<g>
				<g>
					<path fill="#B28070" d="M632.7,318.3c1.1,3.5,2.9,7.5,6.6,9.7c4.3,2.5,8.9,1.2,12.1-0.7c10.6-6.4,29-41.9,1.3-50.6
						C627.7,268.8,628.1,303.6,632.7,318.3z"/>
				</g>
				<g>
					<path fill="#292949" d="M654.6,318.4c1.7,2.4,5.4,1.9,8.1,0.6c11-5.2,17.7-18.2,15.6-30.1c-1.8-10-14.1-17.8-17-5.5
						c-1,4.4,1.5,10.5,0.8,15.3C661,305.7,657.6,312.2,654.6,318.4z"/>
				</g>
				<g>
					<path fill="#292949" d="M627.6,263.9c-12.6,7-18.3,22.3-29.8,31c10.4,4.8,22.7,5.1,33.3,0.8c10.4-4.2,35-6.7,31.8-21.1
						C659.6,260,638.6,257.8,627.6,263.9z"/>
				</g>
			</g>
			<g>
				<path fill="#BABCBE" d="M676.5,354.5c7.2,12.5,7.2,26.7,6.2,40.3c-2.3,30.7,0.7,66.4-9.9,95.8c-20,0-58.4-9.2-78.3-11.2
					c-3.9-26.7-1.6-42.4,0.6-72.6c1.1-14.9,3.4-34.9,8.7-49.2c4.3-11.6,15.9-26.7,33.3-26.2C653.3,331.9,669.9,343.1,676.5,354.5z"
					/>
			</g>
			<path fill="#B28070" d="M643.9,337.6c-1.8,0.8-4.1,0.4-6.2-1.6c-1.9-1.8-1.3-2.4-0.9-5c0.6-3.9,1.6-7.8,2.4-11.7l10.8,2.2
				c0,0-2.2,10.5-2.3,11.2C647.1,335,645.7,336.9,643.9,337.6z"/>
		</g>
		<g>
			<g>
				<polygon fill="#B28070" points="693.3,263.8 688.6,251 683.1,252.9 684.4,262.4 681.5,262 686.8,272.5 692.8,271.3 				"/>
			</g>
			<g>
				<path fill="#BABCBE" d="M649.2,385.6c-0.5-1-0.8-2.1-1-3.3c-0.8-5.2,0.9-10.5,3.6-15c4.3-7.1,10.9-12.9,16-19.5
					c5.8-7.5,11.7-15,17.5-22.6l-1.5-55.6l11.9-1.7l14.6,66.8c-8.2,9.6-16.3,19-23.9,29c-6.8,9-12.3,20.1-22.6,25.5
					C658,392.2,651.7,391,649.2,385.6z"/>
			</g>
		</g>
		<g>
			<polygon fill="#B28070" points="536.2,365.5 527.8,357.2 514.5,357.5 513,364.2 533,372.9 			"/>
		</g>
		<g>
			<polygon fill="#BABCBE" points="635,340.4 625.4,331.8 573.8,372.9 536.8,359.9 524.8,375.1 574.5,404.2 626.9,370.5 			"/>
		</g>
	</g>
	<g>
		<path fill="#F7F7F7" d="M792.8,267.5l-188.7-13.7c-3.9-0.3-6.9-3.7-6.6-7.7l8.6-118.1c0.3-3.9,3.7-6.9,7.6-6.6l188.7,13.7
			c3.9,0.3,6.9,3.7,6.6,7.7l-8.6,118.1C800.1,264.8,796.7,267.8,792.8,267.5z"/>
	</g>
	<g>
		<path fill="#DDDAE8" d="M646.5,196.4l-34.1-2.5c-0.4,0-0.7-0.4-0.6-0.7l1.8-25.2c0-0.4,0.4-0.7,0.7-0.6l34.1,2.5
			c0.4,0,0.7,0.4,0.6,0.7l-1.8,25.2C647.2,196.1,646.8,196.4,646.5,196.4z"/>
	</g>
	<g opacity="0.22">
		<path fill="#A0A1A3" d="M647.4,193.7l0.9-12.9c-9.2,7.7-26.7,10.6-36.5,11.7c-0.1,0.7-0.5,1.6,1.7,1.5l32.1,2.3
			C647.5,196.5,647.2,196.4,647.4,193.7z"/>
	</g>
	<g>
		<g>
			
				<rect x="610.5" y="204.3" transform="matrix(0.9974 7.234979e-02 -7.234979e-02 0.9974 16.9125 -45.1027)" fill="#BABCBE" width="41.1" height="13.2"/>
		</g>
		<g>
			
				<rect x="656.2" y="207.6" transform="matrix(0.9974 7.234737e-02 -7.234737e-02 0.9974 17.272 -48.4032)" fill="#BABCBE" width="41.1" height="13.2"/>
		</g>
		<g>
			
				<rect x="702" y="211" transform="matrix(0.9974 7.234979e-02 -7.234979e-02 0.9974 17.6327 -51.7069)" fill="#BABCBE" width="41.1" height="13.2"/>
		</g>
		<g>
			
				<rect x="747.8" y="214.3" transform="matrix(0.9974 7.234738e-02 -7.234738e-02 0.9974 17.9921 -55.0072)" fill="#BABCBE" width="41.1" height="13.2"/>
		</g>
	</g>
	<g>
		<path fill="#BABCBE" d="M626.9,153.4c-1.3,1-2.6,1.5-4.1,1.4c-3.1-0.2-5.4-2.9-5.2-6.1c0.2-3.1,2.9-5.5,6-5.3
			c1.5,0.1,2.8,0.8,3.9,2l0.2,0.2l1.5-1.3l-0.2-0.3c-1.3-1.5-3.2-2.6-5.3-2.7c-4.2-0.3-7.9,2.9-8.2,7.1c-0.3,4.2,2.9,7.9,7.1,8.3
			c2.1,0.2,4.2-0.6,5.7-1.9l0.3-0.2l-1.4-1.4L626.9,153.4z"/>
		<path fill="#BABCBE" d="M639.5,147.1c0.2-2.4-1.6-4.5-4-4.7l-4.6-0.3l-1.1,15l2,0.1l0.5-6.4l2.2,0.2l2.7,6.6l2.3,0.2l-2.9-6.9
			C638.2,150.3,639.4,148.8,639.5,147.1z M637.5,146.9c-0.1,1.3-1.2,2.2-2.4,2.1l-2.6-0.2l0.3-4.6l2.6,0.2
			C636.6,144.6,637.6,145.7,637.5,146.9z"/>
		<polygon fill="#BABCBE" points="640.2,157.9 648.2,158.4 648.3,156.4 642.5,156 642.9,150.4 648,150.8 648.2,148.7 643,148.4 
			643.3,145 649.1,145.5 649.3,143.4 641.3,142.9 		"/>
		<path fill="#BABCBE" d="M654.6,143.8l-3.5-0.3l-1.1,15l3.5,0.3c4.7,0.3,7.9-2.4,8.2-7C662.1,147.3,659.2,144.2,654.6,143.8z
			 M653.6,156.8l-1.5-0.1l0.8-10.9l1.5,0.1c3.6,0.3,5.5,2.4,5.3,5.8C659.4,155.1,657.2,157.1,653.6,156.8z"/>
		
			<rect x="656.8" y="151.1" transform="matrix(7.236953e-02 -0.9974 0.9974 7.236953e-02 464.5596 803.6314)" fill="#BABCBE" width="15.1" height="2"/>
		<polygon fill="#BABCBE" points="666.5,146.7 670.3,147 669.3,160 671.4,160.1 672.3,147.2 676,147.4 676.2,145.4 666.7,144.7 		
			"/>
		<path fill="#BABCBE" d="M693,158l-0.3,0.2c-1.3,1-2.6,1.5-4.1,1.4c-3.1-0.2-5.4-2.9-5.2-6.1c0.2-3.1,2.9-5.5,6-5.3
			c1.5,0.1,2.8,0.8,3.9,2l0.2,0.2l1.5-1.3l-0.2-0.3c-1.3-1.5-3.2-2.6-5.3-2.7c-4.2-0.3-7.9,2.9-8.2,7.1c-0.3,4.2,2.9,7.9,7.1,8.3
			c2.1,0.1,4.2-0.6,5.7-1.9l0.3-0.2L693,158z"/>
		<path fill="#BABCBE" d="M702.3,147.3l-8.2,14.5l2.3,0.2l2.4-4.3l6.4,0.5l1.8,4.6l2.2,0.2l-6.1-15.5L702.3,147.3z M704.3,156
			l-4.4-0.3l2.5-4.5L704.3,156z"/>
		<path fill="#BABCBE" d="M719.7,152.9c0.2-2.4-1.6-4.5-4-4.7l-4.6-0.3l-1.1,15l2,0.1l0.5-6.4l2.2,0.2l2.7,6.6l2.3,0.2l-2.9-6.9
			C718.4,156.1,719.6,154.6,719.7,152.9z M717.7,152.8c-0.1,1.3-1.2,2.2-2.4,2.1l-2.6-0.2l0.3-4.6l2.6,0.2
			C716.8,150.4,717.8,151.5,717.7,152.8z"/>
		<path fill="#BABCBE" d="M725.1,148.9l-3.5-0.3l-1.1,15l3.5,0.3c4.7,0.3,7.9-2.4,8.2-7C732.6,152.4,729.7,149.3,725.1,148.9z
			 M730.2,156.8c-0.3,3.4-2.5,5.4-6.1,5.1l-1.5-0.1l0.8-10.9l1.5,0.1C728.5,151.2,730.4,153.4,730.2,156.8z"/>
	</g>
	<g>
		
			<rect x="700.6" y="235.1" transform="matrix(0.9974 7.234842e-02 -7.234842e-02 0.9974 19.1034 -53.2162)" fill="#BABCBE" width="87" height="4"/>
	</g>
	<g>
		<g>
			<g>
				<g>
					<g>
						<g>
							<path fill="#BABCBE" d="M505.8,256.3l-13.1-1.6l22.5-182.8l13.1,1.6c2.3,0.3,3.9,2.4,3.6,4.7l-21.4,174.4
								C510.1,254.9,508.1,256.6,505.8,256.3z"/>
							
								<rect x="502.5" y="78.2" transform="matrix(0.9925 0.122 -0.122 0.9925 23.792 -60.823)" opacity="0.49" fill="#6D6E6F" width="12.2" height="171.4"/>
							<path fill="#BABCBE" d="M486,271.1l-109.5-13.5c-4.8-0.6-8.2-5-7.6-9.8l24.3-197.5c0.6-4.8,5-8.2,9.8-7.6l109.5,13.5
								c4.8,0.6,8.2,5,7.6,9.8l-24.3,197.5C495.2,268.3,490.8,271.7,486,271.1z"/>
							
								<rect x="381.2" y="233.8" transform="matrix(0.9925 0.122 -0.122 0.9925 32.4571 -46.3136)" fill="#DDDAE8" width="26.4" height="16.1"/>
							
								<rect x="419.3" y="238.5" transform="matrix(0.9925 0.122 -0.122 0.9925 33.3154 -50.9349)" fill="#8CABEF" width="26.4" height="16.1"/>
							
								<rect x="457.5" y="243.2" transform="matrix(0.9925 0.122 -0.122 0.9925 34.1714 -55.553)" fill="#474EBB" width="26.4" height="16.1"/>
							<polygon opacity="0.16" fill="#7F7F7F" points="482.9,260.9 458.6,241.7 484.8,244.9 							"/>
							<path fill="#FFFFFF" d="M491.9,144.3l-89.6-11c-3-0.4-5.1-3.1-4.8-6.1l7.8-63.2c0.4-3,3.1-5.1,6.1-4.8l89.6,11
								c3,0.4,5.1,3.1,4.8,6.1l-7.8,63.2C497.6,142.5,494.9,144.7,491.9,144.3z"/>
							<path opacity="0.3" fill="#A0A1A3" d="M493.1,124.1c-15.1,10.5-34.8,11.3-52.5,11c-10-0.1-20-1.1-29.9-2.5
								c-4.1-0.6-8.1-1.1-12.2-1.6c0.9,1.4,2.4,2.4,4.1,2.6l89.1,11c3.1,0.4,6-1.8,6.4-4.9l2.7-22.3
								C498.5,119.9,495.9,122.2,493.1,124.1z"/>
							<path opacity="0.33" fill="#6D6E6F" d="M482.4,62.6l-68.8-8.5c-1.2-0.2-2.1-1.3-2-2.5l0.3-2.2c0.2-1.2,1.3-2.1,2.5-2
								l68.8,8.5c1.2,0.2,2.1,1.3,2,2.5l-0.3,2.2C484.8,61.8,483.7,62.7,482.4,62.6z"/>
							<g>
								
									<rect x="412" y="91" transform="matrix(0.9925 0.122 -0.122 0.9925 14.4381 -50.5234)" fill="#DDDAE8" width="15.5" height="3.3"/>
								
									<rect x="432.1" y="93.5" transform="matrix(0.9925 0.122 -0.122 0.9925 14.8898 -52.9581)" fill="#DDDAE8" width="15.5" height="3.3"/>
								
									<rect x="452.3" y="95.9" transform="matrix(0.9925 0.122 -0.122 0.9925 15.3417 -55.3934)" fill="#DDDAE8" width="15.5" height="3.3"/>
								
									<rect x="472.4" y="98.4" transform="matrix(0.9925 0.122 -0.122 0.9925 15.7937 -57.829)" fill="#DDDAE8" width="15.5" height="3.3"/>
							</g>
							<g opacity="0.2">
								<path fill="#6D6E6F" d="M418.5,158.7l-21.7-2.7c-0.9-0.1-1.5-0.9-1.4-1.8l1.4-11.7c0.1-0.9,0.9-1.5,1.8-1.4l21.7,2.7
									c0.9,0.1,1.5,0.9,1.4,1.8l-1.4,11.7C420.2,158.2,419.4,158.8,418.5,158.7z"/>
								<path fill="#6D6E6F" d="M454.3,163.1l-21.7-2.7c-0.9-0.1-1.5-0.9-1.4-1.8l1.4-11.7c0.1-0.9,0.9-1.5,1.8-1.4l21.7,2.7
									c0.9,0.1,1.5,0.9,1.4,1.8l-1.4,11.7C456,162.6,455.2,163.2,454.3,163.1z"/>
								<path fill="#6D6E6F" d="M490.1,167.5l-21.7-2.7c-0.9-0.1-1.5-0.9-1.4-1.8l1.4-11.7c0.1-0.9,0.9-1.5,1.8-1.4l21.7,2.7
									c0.9,0.1,1.5,0.9,1.4,1.8l-1.4,11.7C491.8,167,491,167.6,490.1,167.5z"/>
							</g>
							<g opacity="0.2">
								<path fill="#6D6E6F" d="M415.7,181l-21.7-2.7c-0.9-0.1-1.5-0.9-1.4-1.8l1.4-11.7c0.1-0.9,0.9-1.5,1.8-1.4l21.7,2.7
									c0.9,0.1,1.5,0.9,1.4,1.8l-1.4,11.7C417.4,180.5,416.6,181.1,415.7,181z"/>
								<path fill="#6D6E6F" d="M451.6,185.4l-21.7-2.7c-0.9-0.1-1.5-0.9-1.4-1.8l1.4-11.7c0.1-0.9,0.9-1.5,1.8-1.4l21.7,2.7
									c0.9,0.1,1.5,0.9,1.4,1.8l-1.4,11.7C453.2,184.9,452.4,185.5,451.6,185.4z"/>
								<path fill="#6D6E6F" d="M487.4,189.8l-21.7-2.7c-0.9-0.1-1.5-0.9-1.4-1.8l1.4-11.7c0.1-0.9,0.9-1.5,1.8-1.4l21.7,2.7
									c0.9,0.1,1.5,0.9,1.4,1.8l-1.4,11.7C489.1,189.3,488.2,189.9,487.4,189.8z"/>
							</g>
							<g opacity="0.2">
								<path fill="#6D6E6F" d="M413,203.4l-21.7-2.7c-0.9-0.1-1.5-0.9-1.4-1.8l1.4-11.7c0.1-0.9,0.9-1.5,1.8-1.4l21.7,2.7
									c0.9,0.1,1.5,0.9,1.4,1.8l-1.4,11.7C414.7,202.8,413.9,203.5,413,203.4z"/>
								<path fill="#6D6E6F" d="M448.8,207.8l-21.7-2.7c-0.9-0.1-1.5-0.9-1.4-1.8l1.4-11.7c0.1-0.9,0.9-1.5,1.8-1.4l21.7,2.7
									c0.9,0.1,1.5,0.9,1.4,1.8l-1.4,11.7C450.5,207.2,449.7,207.9,448.8,207.8z"/>
								<path fill="#6D6E6F" d="M484.6,212.2l-21.7-2.7c-0.9-0.1-1.5-0.9-1.4-1.8l1.4-11.7c0.1-0.9,0.9-1.5,1.8-1.4l21.7,2.7
									c0.9,0.1,1.5,0.9,1.4,1.8l-1.4,11.7C486.3,211.6,485.5,212.3,484.6,212.2z"/>
							</g>
							<g opacity="0.2">
								<path fill="#6D6E6F" d="M410.3,225.7l-21.7-2.7c-0.9-0.1-1.5-0.9-1.4-1.8l1.4-11.7c0.1-0.9,0.9-1.5,1.8-1.4l21.7,2.7
									c0.9,0.1,1.5,0.9,1.4,1.8l-1.4,11.7C411.9,225.2,411.1,225.8,410.3,225.7z"/>
								<path fill="#6D6E6F" d="M446.1,230.1l-21.7-2.7c-0.9-0.1-1.5-0.9-1.4-1.8l1.4-11.7c0.1-0.9,0.9-1.5,1.8-1.4l21.7,2.7
									c0.9,0.1,1.5,0.9,1.4,1.8l-1.4,11.7C447.8,229.6,446.9,230.2,446.1,230.1z"/>
								<path fill="#6D6E6F" d="M481.9,234.5l-21.7-2.7c-0.9-0.1-1.5-0.9-1.4-1.8l1.4-11.7c0.1-0.9,0.9-1.5,1.8-1.4l21.7,2.7
									c0.9,0.1,1.5,0.9,1.4,1.8l-1.4,11.7C483.6,234,482.8,234.6,481.9,234.5z"/>
							</g>
							
								<rect x="453.4" y="114" transform="matrix(0.9925 0.122 -0.122 0.9925 17.6677 -56.3913)" fill="#DDDAE8" width="31.9" height="4.1"/>
						</g>
					</g>
				</g>
			</g>
		</g>
	</g>
	<g>
		<path fill="#E8BDB8" d="M496.7,278.1l3.3-16.9l-10.1-11.5l-5.3,4.8l2.4,12l-2.6,2.9l2.9,12.2C487.2,281.6,496.7,277.9,496.7,278.1
			z"/>
		<polygon fill="#E8BDB8" points="364.8,243.9 363.5,226.2 377.8,215.1 383.8,223 377.3,234.5 379.6,240.5 373.3,250 		"/>
		<g>
			<g>
				<g>
					<polygon fill="#292949" points="477.9,444.3 479.1,544.2 468.4,672.8 453.9,672.8 436.6,554.2 416.8,435.3 					"/>
					<polygon fill="#292949" points="454,678.9 469.7,686.7 477.5,678.9 469.7,671.1 454,671.1 					"/>
				</g>
				<g>
					<polygon fill="#292949" points="378.7,444.3 378.4,502.1 388.1,672.8 402.6,672.8 426.8,559.5 439.8,435.3 					"/>
					<polygon fill="#292949" points="402.5,678.9 386.9,686.7 379.1,678.9 386.9,671.1 402.5,671.1 					"/>
				</g>
			</g>
			<path fill="#292949" d="M363.6,479.1c-0.3,9.2-0.1,21.4,3.7,21.9c0.7,0.1,1.4-0.2,2.1-0.5c6.7-3.3,11.5-7.9,18.1-11
				c6.9-3.3,14.8-5,22.5-6.2c11.5-1.8,23.2-2.9,34.7-3c9.9-0.1,20.3,4.4,29.7,6.9c3.6,1,6.6,3.6,9.6,5.7c4.4,3.1,6.4,4.3,5.8-2
				c-1-10.2-2-20.4-3.3-30.5c-2.5-20.2-5.9-40.4-11.6-60c-2.2-7.5-4.7-14.9-7.3-22.2c-3.1-9-6.2-18-9.3-27
				c-3.8-11.2-10.3-19-21.6-22.9c-9.8-3.4-22-4.3-31.5,0.4c-10.6,5.3-15.6,23.2-20.8,32.7c-4.5,8.4-10.2,31.2-11.9,40.3
				c-2,10.9-3.9,21.7-5.4,32.5c-1.6,12-2.8,23.9-3.1,35.7C364,471.1,363.8,474.8,363.6,479.1z"/>
			<path fill="#F7F7F7" d="M415.9,330.1l19.6,0.2c0,0,21,73.3,21.8,86c0.8,12.4,6.1,62.7,6.1,62.7s-21.7,0.5-46.6,3.6
				c-24.4,5.2-26.4,2.1-26.4,2.1s13.2-52.9,13.6-68.1c0.4-15.5,2.4-66.9,2.4-66.9L415.9,330.1z"/>
			<g>
				<path fill="#E8BDB8" d="M427.8,330.5c-0.2,0.2-0.5,0.4-0.8,0.5c-0.6,0.2-1.3,0.1-1.9,0.1c-2.6-0.3-5.2-0.6-7.8-0.9
					c0.9-7.9-3.8-9.7-8.3-14.8c-4.6-5.2-3.2-12.1-2.9-18.5c0.1-1.8,0.2-3.6,0.9-5.2c1.3-2.8,4.3-4.4,7.3-5.3
					c7.5-2.3,16.2-1.8,22.8,2.5c1.8,1.1,3.4,2.6,4.4,4.4c1.5,2.9,1.1,6.3,0.7,9.5c-0.6,4.9-2.1,9.8-4.9,13.9
					c-2.6,3.9-7.6,5.7-8.1,10.4C429,328.4,428.7,329.8,427.8,330.5z"/>
				<g>
					<path fill="#3B455A" d="M442,297.1c-0.4,2-1.4,4-0.9,6c3.2-1.1,5.2-4.3,6.3-7.6c0.5-1.5,0.9-3.1,0.7-4.6
						c-0.1-1.6-0.8-3.2-2.1-4.1c-1.7-1.2-4.9-0.8-5.4,1.5C440.3,290.6,442.6,294.2,442,297.1z"/>
					<path fill="#292949" d="M458.8,279.7c-0.1-2.4-1-4.5-3.1-6c-1.8-1.2-4-2.3-5.1-4.2c-0.9-1.5-1-3.4-1.9-5
						c-1.6-2.8-4.9-3.6-7.9-4.5c-7.3-2.4-11.3-5.1-19.1-2.1c-5.5,2.1-12.7,2.4-17.8,5.6c-2.1,1.3-4,3.4-5.5,5.7
						c-5.2,8.1-6.4,19.5-3.1,28c0.8,1.9,1.7,3.6,2.7,5.3c2.1,3.3,4.3,7.4,7.9,9.1c0.2-1.6,1.4-2.4,1.8-4c0.3-1.1,0.2-2.3,0.1-3.4
						c-0.2-4.4-1.6-11.5,2.9-13.7c5.6-2.8,16.1-0.3,21.6,2.1c4.8,2.1,12.9,4.8,18,2.6C455.1,293,458.9,284.8,458.8,279.7z"/>
				</g>
			</g>
		</g>
		<polygon fill="#292949" points="441.5,329.8 488,329.1 483.5,279.3 498.5,273.8 516.6,333.9 508.1,352.1 456.2,367.2 		"/>
		<polygon fill="#292949" points="409.7,327.5 360,312.9 378.4,250.8 363.2,240 326.7,311.8 336.8,336.7 384.2,361.2 		"/>
	</g>
	<g>
		<path fill="#8CABEF" d="M709.1,605.8l-356.6,22.8c-7.4,0.5-13.8-5.2-14.3-12.7l-14.3-223.2c-0.5-7.4,5.2-13.9,12.6-14.4L693,355.6
			c7.4-0.5,13.8,5.2,14.3,12.7l14.3,223.2C722.1,598.9,716.5,605.3,709.1,605.8z"/>
	</g>
	<g>
		<path fill="#F7F7F7" d="M416.9,510.2l-64.5,4.1c-0.7,0-1.3-0.5-1.4-1.2l-3.1-47.7c0-0.7,0.5-1.3,1.2-1.4l64.5-4.1
			c0.7,0,1.3,0.5,1.4,1.2l3.1,47.7C418.2,509.6,417.6,510.2,416.9,510.2z"/>
	</g>
	<g opacity="0.44">
		<path fill="#A0A1A3" d="M417.8,504.2l-1.5-23.6c-15.3,16.7-47.2,26.6-65.4,31.2c0,2.7,0.6,2.6,3.1,2.5l61.4-3.9
			C418.8,510.3,418.1,509.2,417.8,504.2z"/>
	</g>
	<g>
		<g>
			
				<rect x="352.9" y="528.9" transform="matrix(0.998 -6.387980e-02 6.387980e-02 0.998 -33.7817 26.132)" fill="#F7F7F7" width="77.7" height="24.9"/>
		</g>
		<g>
			
				<rect x="439.4" y="523.4" transform="matrix(0.998 -6.388108e-02 6.388108e-02 0.998 -33.252 31.6471)" fill="#F7F7F7" width="77.7" height="24.9"/>
		</g>
		<g>
			
				<rect x="525.9" y="517.9" transform="matrix(0.998 -6.387980e-02 6.387980e-02 0.998 -32.721 37.1609)" fill="#F7F7F7" width="77.7" height="24.9"/>
		</g>
		<g>
			
				<rect x="612.4" y="512.3" transform="matrix(0.998 -6.387980e-02 6.387980e-02 0.998 -32.1906 42.6754)" fill="#F7F7F7" width="77.7" height="24.9"/>
		</g>
	</g>
	<g>
		<path fill="#F7F7F7" d="M369.3,434.7c-2.2,2.3-4.6,3.4-7.4,3.6c-5.9,0.4-10.9-4.1-11.3-10c-0.4-5.9,4.1-11,9.9-11.4
			c2.9-0.2,5.5,0.7,7.8,2.6l0.5,0.4l2.6-2.8l-0.5-0.5c-2.7-2.6-6.7-3.9-10.6-3.7c-8,0.5-14,7.5-13.5,15.5c0.5,8,7.4,14.1,15.4,13.6
			c3.9-0.3,7.7-2.1,10.1-5.1l0.4-0.5l-2.9-2.3L369.3,434.7z"/>
		<path fill="#F7F7F7" d="M391.2,419.7c-0.3-4.5-4.2-8-8.7-7.7l-8.7,0.6l1.8,28.4l3.8-0.2l-0.8-12l4.2-0.3l6.7,11.6l4.3-0.3
			l-7.1-12.3C389.6,426.1,391.4,423,391.2,419.7z M387.4,420c0.2,2.4-1.7,4.4-4,4.6l-4.9,0.3l-0.6-8.7l4.9-0.3
			C385.1,415.8,387.2,417.6,387.4,420z"/>
		<polygon fill="#F7F7F7" points="395.4,439.7 410.4,438.8 410.2,434.9 399.1,435.6 398.4,425.1 408.1,424.4 407.8,420.6 
			398.2,421.2 397.8,415 408.8,414.2 408.6,410.4 393.6,411.4 		"/>
		<path fill="#F7F7F7" d="M418.6,409.8l-6.7,0.4l1.8,28.4l6.7-0.4c8.8-0.6,14.2-6.5,13.6-15.2C433.5,414.4,427.4,409.2,418.6,409.8z
			 M420.2,434.3l-2.8,0.2l-1.3-20.7l2.8-0.2c6.8-0.4,10.9,3.1,11.4,9.6C430.6,429.7,426.9,433.9,420.2,434.3z"/>
		
			<rect x="437" y="408.5" transform="matrix(0.998 -6.387099e-02 6.387099e-02 0.998 -26.1021 28.8984)" fill="#F7F7F7" width="3.8" height="28.4"/>
		<polygon fill="#F7F7F7" points="441.7,412.1 448.8,411.7 450.4,436.2 454.2,436 452.6,411.4 459.7,411 459.4,407.1 441.5,408.3 		
			"/>
		<path fill="#F7F7F7" d="M494.1,426.3l-0.4,0.4c-2.2,2.3-4.6,3.4-7.4,3.6c-5.9,0.4-10.9-4.1-11.3-10c-0.4-5.9,4.1-11,9.9-11.4
			c2.9-0.2,5.5,0.7,7.8,2.6l0.5,0.4l2.6-2.8l-0.5-0.5c-2.7-2.6-6.7-3.9-10.6-3.7c-8,0.5-14,7.5-13.5,15.5c0.5,8,7.4,14.1,15.4,13.6
			c3.9-0.3,7.7-2.1,10.1-5.1l0.4-0.5L494.1,426.3z"/>
		<path fill="#F7F7F7" d="M508.9,404l-11.7,29.3l4.3-0.3l3.5-8.7l12-0.8l4.6,8.2l4.2-0.3l-15.3-27.5L508.9,404z M514.8,419.7
			l-8.3,0.5l3.6-9L514.8,419.7z"/>
		<path fill="#F7F7F7" d="M542.9,410c-0.3-4.5-4.2-8-8.7-7.7l-8.7,0.6l1.8,28.4l3.8-0.2l-0.8-12l4.2-0.3l6.7,11.6l4.3-0.3l-7.1-12.3
			C541.3,416.4,543.1,413.3,542.9,410z M539,410.3c0.2,2.4-1.7,4.4-4,4.6l-4.9,0.3l-0.6-8.7l4.9-0.3
			C536.8,406.1,538.9,407.9,539,410.3z"/>
		<path fill="#F7F7F7" d="M551.9,401.2l-6.7,0.4L547,430l6.7-0.4c8.8-0.6,14.2-6.5,13.6-15.2C566.8,405.8,560.7,400.7,551.9,401.2z
			 M563.5,414.7c0.4,6.5-3.3,10.7-10,11.1l-2.8,0.2l-1.3-20.7l2.8-0.2C558.9,404.6,563.1,408.1,563.5,414.7z"/>
	</g>
	<g>
		<g>
			<path fill="#DDDAE8" d="M610.6,414.3c-0.5-7.9,3-15.1,8.7-19.7c-3.9-2.4-8.5-3.6-13.3-3.3c-12.7,0.8-22.4,11.9-21.5,24.7
				c0.8,12.8,11.8,22.5,24.5,21.7c4.9-0.3,9.3-2.1,12.8-5C615.5,428.9,611.1,422.2,610.6,414.3z"/>
		</g>
		<g>
			<path fill="#EED5D5" d="M636.8,412.6c-0.5-7.9,3-15.1,8.7-19.7c-3.9-2.4-8.5-3.6-13.3-3.3c-4.9,0.3-9.3,2.1-12.8,5
				c6.3,3.8,10.7,10.5,11.2,18.4c0.5,7.9-3,15.1-8.7,19.7c3.9,2.4,8.5,3.6,13.3,3.3c4.9-0.3,9.3-2.1,12.8-5
				C641.7,427.2,637.3,420.5,636.8,412.6z"/>
		</g>
		<g>
			<path fill="#D3D0DE" d="M630.5,413c-0.5-7.9-4.9-14.6-11.2-18.4c-5.7,4.6-9.2,11.8-8.7,19.7c0.5,7.9,4.9,14.6,11.2,18.4
				C627.5,428.1,631,420.9,630.5,413z"/>
		</g>
		<g>
			<path fill="#D67086" d="M658.3,387.9c-4.9,0.3-9.3,2.1-12.8,5c6.3,3.8,10.7,10.5,11.2,18.4c0.5,7.9-3,15.1-8.7,19.7
				c3.9,2.4,8.5,3.6,13.3,3.3c12.7-0.8,22.4-11.9,21.5-24.7C682,396.8,671.1,387.1,658.3,387.9z"/>
		</g>
		<g>
			<path fill="#ED8CA1" d="M656.7,411.3c-0.5-7.9-4.9-14.6-11.2-18.4c-5.7,4.6-9.2,11.8-8.7,19.7c0.5,7.9,4.9,14.6,11.2,18.4
				C653.7,426.5,657.2,419.2,656.7,411.3z"/>
		</g>
	</g>
	<g>
		
			<rect x="528" y="557.6" transform="matrix(0.998 -6.388038e-02 6.388038e-02 0.998 -34.6121 40.1259)" fill="#F7F7F7" width="164.4" height="7.5"/>
	</g>
</g>
</svg>
